<svg width="85" height="112" viewBox="0 0 85 112" fill="none" xmlns="http://www.w3.org/2000/svg">
<path d="M31.4584 0C29.4972 0 27.6536 0.979021 26.5945 2.58462C26.2023 3.17203 25.1824 5.20839 24.4764 7.83217C23.4565 11.5916 23.4565 15.351 24.3979 18.6406C24.7117 19.7371 25.104 20.7552 25.5355 21.7343C14.1994 27.0601 8.86484 35.8713 6.35445 42.7245C4.74622 47.1105 3.84405 51.8489 3.72637 56.7441C3.64792 60.2685 3.9225 63.7147 4.62855 66.8475C2.58885 69.3538 0.862949 71.7818 0.784499 71.8993L0 72.9958V74.249V98.2154V101.622L3.37335 102.092L59.8181 110.238L72.174 112L68.1338 108.201L77.7047 109.141L81.9802 109.572L82.0194 105.264C82.0194 102.523 82.0586 99.7818 82.0586 97.0014C82.0979 91.8322 82.1371 86.5063 82.1763 81.2587C82.5686 79.9273 84.6867 72.8392 84.9613 64.3804C85.1574 59.1329 84.6083 54.3552 83.3138 50.2434C81.8233 45.3874 79.3129 41.3538 75.9003 38.2993C75.4688 36.5762 74.6843 34.2657 73.2723 31.7594C75.2335 29.9189 76.6848 27.5301 77.4693 24.7105C78.6853 20.4028 78.0969 16.4867 77.7831 14.9986C77.1947 12.3357 74.802 10.3776 72.0563 10.3776C71.8209 10.3776 71.5856 10.3776 71.311 10.4168C67.0355 10.965 63.3876 12.6098 60.5634 15.351C59.2689 16.6042 58.2883 17.9357 57.5823 19.1888C55.0326 18.3273 52.2477 17.7007 49.3058 17.3483C48.7566 16.6042 48.0114 15.351 47.5014 13.3538C46.2462 8.4979 43.2651 4.62098 38.8327 2.23217C35.6163 0.46993 32.6744 0.0783217 32.1253 0.0391608C31.8899 0 31.6546 0 31.4584 0Z" fill="white"/>
<path d="M67.6631 19.0713C65.7018 22.0084 65.1919 25.6503 65.1919 25.6503C67.1924 22.2042 69.3498 20.207 70.7226 19.1888C70.8403 22.5175 69.7028 26.8252 65.6626 28.3916C64.9173 27.6867 64.0544 26.9818 63.1522 26.3161C63.4268 24.7888 64.4074 21.2252 67.6631 19.0713Z" fill="white"/>
<path d="M23.9664 36.1063C28.8303 31.1329 34.4003 28.5483 36.9107 27.5692C39.3034 28.5091 41.1862 28.5483 41.1862 28.5483C36.3615 24.4755 32.5567 19.7371 31.6153 15.8602C31.0269 13.4322 31.6153 10.7692 32.2429 8.88953C32.2037 12.6098 33.3804 18.8755 40.6371 24.2797C40.6371 24.2797 32.9882 12.7273 36.087 9.04617C37.656 10.3776 39.1465 12.3748 39.8918 15.2727C41.5785 22.0084 46.0893 25.1804 46.2462 25.2979C46.5208 25.4546 46.8346 25.572 47.1484 25.572C67.7023 27.0993 68.5652 41.0406 68.6045 41.6671C68.6437 42.2546 68.9183 42.7637 69.389 43.0769C81.2741 51.6532 76.2926 73.1133 74.9589 78.0476C71.4679 78.7525 69.1928 77.4993 68.2514 76.7553C67.1531 51.9664 56.837 60.386 48.3644 56.1175L50.0511 54.1203C40.6763 54.1203 43.7751 61.6 43.7751 61.6L45.9324 59.0154C52.9929 62.7748 58.7198 58.9371 62.0539 66.6126C58.6413 65.4769 54.3658 66.1818 50.4825 67.0825C43.6182 68.6881 37.9305 67.9441 33.9296 65.1245C30.9877 63.049 28.8303 59.6028 28.595 56.3525C28.595 56.3525 26.0846 62.6574 31.1054 68.6098C33.3804 71.2727 36.087 73.035 39.6564 73.8182C29.0265 74.5623 17.2982 66.8476 21.966 51.1832C21.966 51.1832 18.1219 52.6713 14.1994 57.6448C15.2193 48.8336 18.475 41.7063 23.9664 36.1063Z" fill="white"/>
<path d="M36.2047 77.2643C36.5969 77.3427 37.0284 77.3818 37.4598 77.4601C37.0284 77.3427 36.6361 77.3035 36.2047 77.2643Z" fill="#4D4E4E"/>
<path d="M43.069 37.5944C44.991 38.6909 46.9915 37.5944 48.9135 38.221C48.4036 38.2601 47.9329 38.4559 47.6583 38.8475C47.3053 39.3175 47.2269 39.9049 47.423 40.5706C47.5799 40.4923 47.7368 40.414 47.9329 40.414C48.5213 40.3748 49.0704 40.8056 49.1097 41.4321C49.1489 41.8238 48.992 42.137 48.7174 42.372C48.7174 42.372 48.7174 42.372 48.7566 42.4112C50.0511 43.4294 51.6985 43.5077 52.4046 42.5678C52.4438 42.5287 52.483 42.4503 52.5222 42.372C53.5813 43.7426 55.2288 43.821 55.2288 43.821C55.2288 43.821 56.484 31.8377 43.069 37.5944Z" fill="black"/>
<path d="M72.3308 40.4532C72.0171 38.6909 70.958 34.6574 67.82 30.7413C74.449 27.6084 74.802 19.8546 73.8998 15.821C73.7037 14.842 72.7623 14.1762 71.7817 14.2937C64.2113 15.2727 60.7987 20.3636 59.622 24.2797C56.4055 22.7133 52.4046 21.5385 47.423 21.1077C46.6385 20.442 44.6773 18.4448 43.6574 14.3329C41.3431 5.09092 32.0468 3.95525 31.6546 3.91609C30.9485 3.83777 30.2425 4.15106 29.8502 4.77763C29.6933 5.0126 26.32 11.1609 28.1635 17.6224C28.9088 20.207 30.0463 22.165 31.3408 23.6923C7.92345 31.5636 5.41306 55.6084 8.90408 67.8657C6.47213 70.7636 3.96173 74.249 3.96173 74.249V98.2154L60.4065 106.361L57.0331 103.228L78.0969 105.304C78.1361 97.0797 78.2146 88.8168 78.2538 80.593C78.293 80.4755 78.3715 80.3972 78.3715 80.2797C78.7245 79.1049 87.1187 52.0839 72.3308 40.4532ZM67.6631 19.0713C65.7018 22.0084 65.1919 25.6504 65.1919 25.6504C67.1924 22.2042 69.3498 20.207 70.7226 19.1888C70.8403 22.5175 69.7028 26.8252 65.6626 28.3916C64.9173 27.6867 64.0544 26.9818 63.1522 26.3161C63.4268 24.7888 64.4074 21.2252 67.6631 19.0713ZM23.9665 36.1063C28.8304 31.1329 34.4003 28.5483 36.9107 27.5692C39.3034 28.5091 41.1862 28.5483 41.1862 28.5483C36.3616 24.4755 32.5567 19.7371 31.6153 15.8602C31.027 13.4322 31.6153 10.7692 32.2429 8.88952C32.2037 12.6098 33.3805 18.8755 40.6371 24.2797C40.6371 24.2797 32.9882 12.7273 36.087 9.04616C37.656 10.3776 39.1465 12.3748 39.8918 15.2727C41.5785 22.0084 46.0894 25.1804 46.2463 25.2979C46.5208 25.4546 46.8346 25.572 47.1484 25.572C67.7023 27.0993 68.5653 41.0406 68.6045 41.6671C68.6437 42.2546 68.9183 42.7636 69.389 43.0769C81.2741 51.6532 76.2926 73.1133 74.9589 78.0476C71.4679 78.7525 69.1929 77.4993 68.2515 76.7552C67.1532 51.9664 56.837 60.386 48.3644 56.1175L50.0511 54.1203C40.6763 54.1203 43.7751 61.6 43.7751 61.6L45.9324 59.0154C52.9929 62.7748 58.7198 58.9371 62.0539 66.6126C58.6413 65.4769 54.3658 66.1818 50.4825 67.0825C43.6182 68.6881 37.9306 67.9441 33.9296 65.1245C30.9877 63.049 28.8304 59.6028 28.595 56.3525C28.595 56.3525 26.0846 62.6573 31.1054 68.6098C33.3805 71.2727 36.087 73.035 39.6565 73.8182C29.0265 74.5622 17.2982 66.8476 21.966 51.1832C21.966 51.1832 18.1219 52.6713 14.1994 57.6448C15.2193 48.8336 18.475 41.7063 23.9665 36.1063ZM19.6125 83.0602L14.0425 82.5511L15.7684 84.3916V94.3776L12.3559 94.0643V82.4336L8.51183 82.0811V78.7916L19.6125 79.8098V83.0602ZM31.6938 95.8266L28.1635 84.4699L24.6333 95.1608L20.9069 94.8084L26.0062 80.358L26.3592 80.3972C27.5359 80.7888 28.7911 81.1021 30.164 81.2979C30.2817 81.3371 30.4386 81.3371 30.5563 81.3371L35.4594 96.1399L31.6938 95.8266ZM44.5204 92.3021L40.5586 91.9497L42.2845 93.7902V96.8056L38.872 96.4923V88.5818L44.5204 89.0909C45.5794 89.1692 46.3247 88.4252 46.3247 87.3287C46.3247 86.2322 45.5402 85.3315 44.5204 85.2532L38.872 84.7441V81.5329L44.5204 82.042C47.4622 82.3161 49.7373 84.8224 49.7373 87.642C49.7373 90.5007 47.4622 92.5762 44.5204 92.3021ZM57.0331 98.1371L53.6205 97.8238V82.9035L57.0331 83.2168V98.1371ZM69.5851 99.3119L66.7609 94.1427L63.4268 93.8294L65.1527 95.6699V98.9203L61.7401 98.607V90.6965L67.7415 91.2448C68.6829 91.3231 69.4674 90.579 69.4674 89.4825C69.4674 88.386 68.6829 87.4853 67.7415 87.407L61.7401 86.8587V83.6476L67.7415 84.1958C70.5657 84.4699 72.88 86.9371 72.88 89.7958C72.88 91.6364 71.7817 93.2028 70.1343 93.8685L73.3115 99.6252L69.5851 99.3119Z" fill="#101114"/>
</svg>
